<svg display="none" width="0" height="0" version="1.1" xmlns="http://www.w3.org/2000/svg" xmlns:xlink="http://www.w3.org/1999/xlink">
    <defs>
        <symbol id="icon-comment" viewBox="0 0 1024 1024">
	          <title>comment</title>
	          <path class="path1" d="M922.24 186.667c0-47.147-37.76-85.333-84.907-85.333h-682.667c-47.147 0-85.333 38.187-85.333 85.333v512c0 47.147 38.187 85.333 85.333 85.333h597.333l170.667 170.667-0.427-768zM752 613.333h-512v-85.333h512v85.333zM752 485.333h-512v-85.333h512v85.333zM752 357.333h-512v-85.333h512v85.333z"></path>
        </symbol>
        <symbol id="icon-add" viewBox="0 0 1024 1024">
	          <title>add</title>
	          <path class="path1" d="M810.667 554.667h-256v256h-85.333v-256h-256v-85.333h256v-256h85.333v256h256v85.333z"></path>
        </symbol>
        <symbol id="icon-group" viewBox="0 0 1024 1024">
	          <title>group</title>
	          <path class="path1" d="M512 85.333c-235.733 0-426.667 190.933-426.667 426.667 0 235.52 190.933 426.667 426.667 426.667s426.667-191.147 426.667-426.667c0-235.733-190.933-426.667-426.667-426.667zM341.333 746.667c-58.88 0-106.667-47.787-106.667-106.667s47.787-106.667 106.667-106.667 106.667 47.787 106.667 106.667-47.787 106.667-106.667 106.667zM405.333 341.333c0-58.88 47.787-106.667 106.667-106.667s106.667 47.787 106.667 106.667-47.787 106.667-106.667 106.667-106.667-47.787-106.667-106.667zM682.667 746.667c-58.88 0-106.667-47.787-106.667-106.667s47.787-106.667 106.667-106.667 106.667 47.787 106.667 106.667-47.787 106.667-106.667 106.667z"></path>
        </symbol>
        <symbol id="icon-done" viewBox="0 0 1024 1024">
	          <title>done</title>
	          <path class="path1" d="M384 689.92l-177.92-177.92-60.373 60.373 238.293 238.293 512-512-60.373-60.373z"></path>
        </symbol>
        <symbol id="icon-player" viewBox="0 0 1024 1024">
	          <title>player</title>
	          <path class="path1" d="M512 85.333c-235.733 0-426.667 190.933-426.667 426.667s190.933 426.667 426.667 426.667 426.667-190.933 426.667-426.667-190.933-426.667-426.667-426.667zM512 213.333c70.613 0 128 57.387 128 128 0 70.827-57.387 128-128 128s-128-57.173-128-128c0-70.613 57.387-128 128-128zM512 819.2c-106.88 0-200.747-54.613-256-137.387 1.067-84.693 170.88-131.413 256-131.413s254.72 46.72 256 131.413c-55.253 82.773-149.12 137.387-256 137.387z"></path>
        </symbol>
        <symbol id="icon-edit" viewBox="0 0 1024 1024">
	          <title>edit</title>
	          <path class="path1" d="M128 736v160h160l472.107-472.107-160-160-472.107 472.107zM883.413 300.587c16.64-16.64 16.64-43.733 0-60.373l-99.627-99.627c-16.64-16.64-43.733-16.64-60.373 0l-78.080 78.080 160 160 78.080-78.080z"></path>
        </symbol>
        <symbol id="icon-alarm" viewBox="0 0 1024 1024">
	          <title>alarm</title>
	          <path class="path1" d="M938.667 244.053l-196.053-164.48-54.827 65.28 196.053 164.48 54.827-65.28zM336.213 144.64l-54.827-65.28-196.053 164.48 54.827 65.28 196.053-164.48zM511.787 170.667c-212.267 0-383.787 171.947-383.787 384s171.52 384 383.787 384 384.213-171.947 384.213-384-171.947-384-384.213-384zM512 853.333c-164.907 0-298.667-133.76-298.667-298.667s133.76-298.667 298.667-298.667 298.667 133.76 298.667 298.667-133.547 298.667-298.667 298.667zM449.493 619.733l-90.453-90.453-45.227 45.227 135.68 135.68 256.213-256.213-45.227-45.227-210.987 210.987z"></path>
        </symbol>
        <symbol id="icon-arrow-back" viewBox="0 0 1024 1024">
	          <title>arrow-back</title>
	          <path class="path1" d="M853.333 469.333h-519.253l238.293-238.293-60.373-60.373-341.333 341.333 341.333 341.333 60.373-60.373-238.293-238.293h519.253v-85.333z"></path>
        </symbol>
        <symbol id="icon-arrow-dropdown" viewBox="0 0 1024 1024">
	          <title>arrow-dropdown</title>
	          <path class="path1" d="M298.667 426.667l213.333 213.333 213.333-213.333z"></path>
        </symbol>
        <symbol id="icon-arrow-forward" viewBox="0 0 1024 1024">
	          <title>arrow-forward</title>
	          <path class="path1" d="M512 170.667l-60.373 60.373 238.293 238.293h-519.253v85.333h519.253l-238.293 238.293 60.373 60.373 341.333-341.333z"></path>
        </symbol>
        <symbol id="icon-assessment" viewBox="0 0 1024 1024">
	          <title>assessment</title>
	          <path class="path1" d="M810.667 128h-597.333c-47.147 0-85.333 38.187-85.333 85.333v597.333c0 47.147 38.187 85.333 85.333 85.333h597.333c47.147 0 85.333-38.187 85.333-85.333v-597.333c0-47.147-38.187-85.333-85.333-85.333zM384 725.333h-85.333v-298.667h85.333v298.667zM554.667 725.333h-85.333v-426.667h85.333v426.667zM725.333 725.333h-85.333v-170.667h85.333v170.667z"></path>
        </symbol>
        <symbol id="icon-chevron-left" viewBox="0 0 1024 1024">
	          <title>chevron-left</title>
	          <path class="path1" d="M657.707 316.373l-60.373-60.373-256 256 256 256 60.373-60.373-195.627-195.627z"></path>
        </symbol>
        <symbol id="icon-chevron-right" viewBox="0 0 1024 1024">
	          <title>chevron-right</title>
	          <path class="path1" d="M426.667 256l-60.373 60.373 195.627 195.627-195.627 195.627 60.373 60.373 256-256z"></path>
        </symbol>
        <symbol id="icon-close" viewBox="0 0 1024 1024">
	          <title>close</title>
	          <path class="path1" d="M810.667 273.707l-60.373-60.373-238.293 238.293-238.293-238.293-60.373 60.373 238.293 238.293-238.293 238.293 60.373 60.373 238.293-238.293 238.293 238.293 60.373-60.373-238.293-238.293z"></path>
        </symbol>
        <symbol id="icon-dashboard" viewBox="0 0 1024 1024">
	          <title>dashboard</title>
	          <path class="path1" d="M128 554.667h341.333v-426.667h-341.333v426.667zM128 896h341.333v-256h-341.333v256zM554.667 896h341.333v-426.667h-341.333v426.667zM554.667 128v256h341.333v-256h-341.333z"></path>
        </symbol>
        <symbol id="icon-delete" viewBox="0 0 1024 1024">
	          <title>delete</title>
	          <path class="path1" d="M256 810.667c0 47.147 38.187 85.333 85.333 85.333h341.333c47.147 0 85.333-38.187 85.333-85.333v-512h-512v512zM810.667 170.667h-149.333l-42.667-42.667h-213.333l-42.667 42.667h-149.333v85.333h597.333v-85.333z"></path>
        </symbol>
        <symbol id="icon-event" viewBox="0 0 1024 1024">
	          <title>event</title>
	          <path class="path1" d="M725.333 512h-213.333v213.333h213.333v-213.333zM682.667 42.667v85.333h-341.333v-85.333h-85.333v85.333h-42.667c-47.147 0-84.907 38.187-84.907 85.333l-0.427 597.333c0 47.147 38.187 85.333 85.333 85.333h597.333c47.147 0 85.333-38.187 85.333-85.333v-597.333c0-47.147-38.187-85.333-85.333-85.333h-42.667v-85.333h-85.333zM810.667 810.667h-597.333v-469.333h597.333v469.333z"></path>
        </symbol>
        <symbol id="icon-expand-less" viewBox="0 0 1024 1024">
	          <title>expand-less</title>
	          <path class="path1" d="M512 341.333l-256 256 60.373 60.373 195.627-195.627 195.627 195.627 60.373-60.373z"></path>
        </symbol>
        <symbol id="icon-expand-more" viewBox="0 0 1024 1024">
	          <title>expand-more</title>
	          <path class="path1" d="M707.627 366.293l-195.627 195.627-195.627-195.627-60.373 60.373 256 256 256-256z"></path>
        </symbol>
        <symbol id="icon-fullscreen-exit" viewBox="0 0 1024 1024">
	          <title>fullscreen-exit</title>
	          <path class="path1" d="M213.333 682.667h128v128h85.333v-213.333h-213.333v85.333zM341.333 341.333h-128v85.333h213.333v-213.333h-85.333v128zM597.333 810.667h85.333v-128h128v-85.333h-213.333v213.333zM682.667 341.333v-128h-85.333v213.333h213.333v-85.333h-128z"></path>
        </symbol>
        <symbol id="icon-fullscreen" viewBox="0 0 1024 1024">
	          <title>fullscreen</title>
	          <path class="path1" d="M298.667 597.333h-85.333v213.333h213.333v-85.333h-128v-128zM213.333 426.667h85.333v-128h128v-85.333h-213.333v213.333zM725.333 725.333h-128v85.333h213.333v-213.333h-85.333v128zM597.333 213.333v85.333h128v128h85.333v-213.333h-213.333z"></path>
        </symbol>
        <symbol id="icon-grid" viewBox="0 0 1024 1024">
	          <title>grid</title>
	          <path class="path1" d="M170.667 341.333h170.667v-170.667h-170.667v170.667zM426.667 853.333h170.667v-170.667h-170.667v170.667zM170.667 853.333h170.667v-170.667h-170.667v170.667zM170.667 597.333h170.667v-170.667h-170.667v170.667zM426.667 597.333h170.667v-170.667h-170.667v170.667zM682.667 170.667v170.667h170.667v-170.667h-170.667zM426.667 341.333h170.667v-170.667h-170.667v170.667zM682.667 597.333h170.667v-170.667h-170.667v170.667zM682.667 853.333h170.667v-170.667h-170.667v170.667z"></path>
        </symbol>
        <symbol id="icon-menu" viewBox="0 0 1024 1024">
	          <title>menu</title>
	          <path class="path1" d="M128 768h768v-85.333h-768v85.333zM128 554.667h768v-85.333h-768v85.333zM128 256v85.333h768v-85.333h-768z"></path>
        </symbol>
        <symbol id="icon-more-vertical" viewBox="0 0 1024 1024">
	          <title>more-vertical</title>
	          <path class="path1" d="M512 341.333c47.147 0 85.333-38.187 85.333-85.333s-38.187-85.333-85.333-85.333-85.333 38.187-85.333 85.333 38.187 85.333 85.333 85.333zM512 426.667c-47.147 0-85.333 38.187-85.333 85.333s38.187 85.333 85.333 85.333 85.333-38.187 85.333-85.333-38.187-85.333-85.333-85.333zM512 682.667c-47.147 0-85.333 38.187-85.333 85.333s38.187 85.333 85.333 85.333 85.333-38.187 85.333-85.333-38.187-85.333-85.333-85.333z"></path>
        </symbol>
        <symbol id="icon-more" viewBox="0 0 1024 1024">
	          <title>more</title>
	          <path class="path1" d="M256 426.667c-47.147 0-85.333 38.187-85.333 85.333s38.187 85.333 85.333 85.333 85.333-38.187 85.333-85.333-38.187-85.333-85.333-85.333zM768 426.667c-47.147 0-85.333 38.187-85.333 85.333s38.187 85.333 85.333 85.333 85.333-38.187 85.333-85.333-38.187-85.333-85.333-85.333zM512 426.667c-47.147 0-85.333 38.187-85.333 85.333s38.187 85.333 85.333 85.333 85.333-38.187 85.333-85.333-38.187-85.333-85.333-85.333z"></path>
        </symbol>
        <symbol id="icon-refresh" viewBox="0 0 1024 1024">
	          <title>refresh</title>
	          <path class="path1" d="M753.067 270.933c-61.653-61.867-146.773-100.267-241.067-100.267-188.587 0-340.907 152.747-340.907 341.333s152.32 341.333 340.907 341.333c158.933 0 292.053-108.8 329.813-256h-88.747c-35.2 99.413-129.493 170.667-241.067 170.667-141.44 0-256-114.56-256-256s114.56-256 256-256c70.613 0 133.973 29.44 180.267 75.733l-137.6 137.6h298.667v-298.667l-100.267 100.267z"></path>
        </symbol>
        <symbol id="icon-settings" viewBox="0 0 1024 1024">
	          <title>settings</title>
	          <path class="path1" d="M829.013 553.6c1.707-13.653 2.987-27.52 2.987-41.6s-1.28-27.947-2.987-41.6l90.24-70.613c8.107-6.4 10.453-17.92 5.12-27.307l-85.333-147.84c-5.333-9.173-16.427-13.013-26.027-9.173l-106.24 42.88c-21.973-16.853-46.080-31.147-72.107-42.027l-16-113.067c-1.92-10.027-10.667-17.92-21.333-17.92h-170.667c-10.667 0-19.413 7.893-21.12 17.92l-16 113.067c-26.027 10.88-50.133 24.96-72.107 42.027l-106.24-42.88c-9.6-3.627-20.693 0-26.027 9.173l-85.333 147.84c-5.333 9.173-2.987 20.693 5.12 27.307l90.027 70.613c-1.707 13.653-2.987 27.52-2.987 41.6s1.28 27.947 2.987 41.6l-90.027 70.613c-8.107 6.4-10.453 17.92-5.12 27.307l85.333 147.84c5.333 9.173 16.427 13.013 26.027 9.173l106.24-42.88c21.973 16.853 46.080 31.147 72.107 42.027l16 113.067c1.707 10.027 10.453 17.92 21.12 17.92h170.667c10.667 0 19.413-7.893 21.12-17.92l16-113.067c26.027-10.88 50.133-24.96 72.107-42.027l106.24 42.88c9.6 3.627 20.693 0 26.027-9.173l85.333-147.84c5.333-9.173 2.987-20.693-5.12-27.307l-90.027-70.613zM512 661.333c-82.56 0-149.333-66.773-149.333-149.333s66.773-149.333 149.333-149.333 149.333 66.773 149.333 149.333-66.773 149.333-149.333 149.333z"></path>
        </symbol>
    </defs>
</svg>
